name analog
datacolumns 19
datarows 58
range 0.6285000000000001 0.657
endheader
time	ground_force_vx	ground_force_vy	ground_force_vz	ground_force_px	ground_force_py	ground_force_pz	l_ground_force_vx	l_ground_force_vy	l_ground_force_vz	l_ground_force_px	l_ground_force_py	l_ground_force_pz	ground_torque_x	ground_torque_y	ground_torque_z	l_ground_torque_x	l_ground_torque_y	l_ground_torque_z
0.6285000000000001	-0.0	-0.0	-0.0	-0.0	-0.0	-0.0	2.4839019775390625	4.670732498168945	-545.107177734375	-0.0	-0.0	-0.0	-0.0	-0.0	-0.0	144389.734375	-33168.6953125	-858.4592895507812
0.629	-0.0	-0.0	-0.0	-0.0	-0.0	-0.0	2.1907546520233154	4.932566165924072	-549.2553100585938	-0.0	-0.0	-0.0	-0.0	-0.0	-0.0	146348.40625	-33130.2109375	-1071.8697509765625
0.6295000000000001	-0.0	-0.0	-0.0	-0.0	-0.0	-0.0	0.6997679471969604	5.201104640960693	-554.5308227539062	-0.0	-0.0	-0.0	-0.0	-0.0	-0.0	148178.34375	-33090.6328125	-1395.7078857421875
0.63	-0.0	-0.0	-0.0	-0.0	-0.0	-0.0	-1.3533639907836914	4.93955659866333	-561.1249389648438	-0.0	-0.0	-0.0	-0.0	-0.0	-0.0	149674.109375	-32857.80078125	-2109.108154296875
0.6305000000000001	-0.0	-0.0	-0.0	-0.0	-0.0	-0.0	-4.27711296081543	4.851388454437256	-570.16455078125	-0.0	-0.0	-0.0	-0.0	-0.0	-0.0	152181.828125	-32886.29296875	-2822.010986328125
0.631	-0.0	-0.0	-0.0	-0.0	-0.0	-0.0	-6.485196113586426	4.163476467132568	-576.8594970703125	-0.0	-0.0	-0.0	-0.0	-0.0	-0.0	154475.984375	-32609.943359375	-3738.111328125
0.6315000000000001	-0.0	-0.0	-0.0	-0.0	-0.0	-0.0	-8.084786415100098	4.059784889221191	-586.2374877929688	-0.0	-0.0	-0.0	-0.0	-0.0	-0.0	157119.703125	-32467.400390625	-3777.111572265625
0.632	-0.0	-0.0	-0.0	-0.0	-0.0	-0.0	-8.52512264251709	4.2364912033081055	-595.0126342773438	-0.0	-0.0	-0.0	-0.0	-0.0	-0.0	159831.640625	-32598.087890625	-4362.62890625
0.6325000000000001	-0.0	-0.0	-0.0	-0.0	-0.0	-0.0	-9.941391944885254	4.2423200607299805	-604.0892333984375	-0.0	-0.0	-0.0	-0.0	-0.0	-0.0	163065.828125	-32563.625	-4461.40087890625
0.633	-0.0	-0.0	-0.0	-0.0	-0.0	-0.0	-11.360610008239746	4.664236068725586	-613.5701293945312	-0.0	-0.0	-0.0	-0.0	-0.0	-0.0	165889.890625	-32352.578125	-5142.53857421875
0.6335000000000001	-0.0	-0.0	-0.0	-0.0	-0.0	-0.0	-13.045973777770996	4.780300140380859	-624.3046875	-0.0	-0.0	-0.0	-0.0	-0.0	-0.0	169325.84375	-32323.046875	-5884.29736328125
0.634	-0.0	-0.0	-0.0	-0.0	-0.0	-0.0	-13.57811164855957	5.909545421600342	-633.6890869140625	-0.0	-0.0	-0.0	-0.0	-0.0	-0.0	172224.65625	-32180.892578125	-6060.5166015625
0.6345000000000001	-0.0	-0.0	-0.0	-0.0	-0.0	-0.0	-13.752775192260742	7.063142776489258	-641.0833740234375	-0.0	-0.0	-0.0	-0.0	-0.0	-0.0	174626.359375	-32354.548828125	-6265.35791015625
0.635	-0.0	-0.0	-0.0	-0.0	-0.0	-0.0	-14.18864631652832	7.348399639129639	-648.7237548828125	-0.0	-0.0	-0.0	-0.0	-0.0	-0.0	176720.734375	-31916.45703125	-6446.1708984375
0.6355000000000001	-0.0	-0.0	-0.0	-0.0	-0.0	-0.0	-14.28489875793457	8.316948890686035	-653.6021118164062	-0.0	-0.0	-0.0	-0.0	-0.0	-0.0	178849.078125	-31922.154296875	-6591.8173828125
0.636	-0.0	-0.0	-0.0	-0.0	-0.0	-0.0	-14.272868156433104	9.459946632385254	-659.5097045898438	-0.0	-0.0	-0.0	-0.0	-0.0	-0.0	180435.09375	-31624.37890625	-6646.89404296875
0.6365000000000001	-0.0	-0.0	-0.0	-0.0	-0.0	-0.0	-13.126867294311523	9.905938148498535	-661.6514892578125	-0.0	-0.0	-0.0	-0.0	-0.0	-0.0	181612.390625	-31565.12890625	-6353.36669921875
0.637	-0.0	-0.0	-0.0	-0.0	-0.0	-0.0	-11.61435890197754	10.41523551940918	-662.3582763671875	-0.0	-0.0	-0.0	-0.0	-0.0	-0.0	181845.125	-31535.00390625	-5908.75927734375
0.6375000000000001	-0.0	-0.0	-0.0	-0.0	-0.0	-0.0	-9.84689712524414	9.71538543701172	-662.9959106445312	-0.0	-0.0	-0.0	-0.0	-0.0	-0.0	181882.46875	-31495.3671875	-5374.45849609375
0.638	-0.0	-0.0	-0.0	-0.0	-0.0	-0.0	-8.959789276123047	8.56298828125	-661.93310546875	-0.0	-0.0	-0.0	-0.0	-0.0	-0.0	181671.75	-31265.216796875	-5107.12060546875
0.6385000000000001	-0.0	-0.0	-0.0	-0.0	-0.0	-0.0	-8.784407615661621	7.511404991149902	-657.4685668945312	-0.0	-0.0	-0.0	-0.0	-0.0	-0.0	180351.1875	-30972.8359375	-4900.27099609375
0.639	-0.0	-0.0	-0.0	-0.0	-0.0	-0.0	-8.246150016784668	6.176614284515381	-653.2782592773438	-0.0	-0.0	-0.0	-0.0	-0.0	-0.0	179490.1875	-30421.96484375	-4631.88671875
0.6395000000000001	-0.0	-0.0	-0.0	-0.0	-0.0	-0.0	-7.542316436767578	4.602183818817139	-649.0355224609375	-0.0	-0.0	-0.0	-0.0	-0.0	-0.0	178251.109375	-30035.138671875	-4333.87451171875
0.64	-0.0	-0.0	-0.0	-0.0	-0.0	-0.0	-8.065339088439941	3.087603807449341	-645.5740966796875	-0.0	-0.0	-0.0	-0.0	-0.0	-0.0	176763.1875	-29945.02734375	-4334.06005859375
0.6405	-0.0	-0.0	-0.0	-0.0	-0.0	-0.0	-7.803019046783447	1.6658116579055786	-640.686279296875	-0.0	-0.0	-0.0	-0.0	-0.0	-0.0	175645.65625	-29298.998046875	-4129.01806640625
0.641	-0.0	-0.0	-0.0	-0.0	-0.0	-0.0	-7.890196800231934	0.0067210919223725	-639.2767333984375	-0.0	-0.0	-0.0	-0.0	-0.0	-0.0	174869.09375	-29304.076171875	-4011.384033203125
0.6415	-0.0	-0.0	-0.0	-0.0	-0.0	-0.0	-7.627503871917725	-0.6134019494056702	-636.1798706054688	-0.0	-0.0	-0.0	-0.0	-0.0	-0.0	174308.296875	-28939.087890625	-3979.47607421875
0.642	-0.0	-0.0	-0.0	-0.0	-0.0	-0.0	-7.982417583465576	-1.3155468702316284	-634.7760009765625	-0.0	-0.0	-0.0	-0.0	-0.0	-0.0	173556.3125	-28947.87109375	-4040.32080078125
0.6425	-0.0	-0.0	-0.0	-0.0	-0.0	-0.0	-7.986922740936279	-0.8832168579101562	-634.7344360351562	-0.0	-0.0	-0.0	-0.0	-0.0	-0.0	173131.84375	-28321.373046875	-4068.3974609375
0.643	-0.0	-0.0	-0.0	-0.0	-0.0	-0.0	-7.8136115074157715	-0.3504742383956909	-632.6460571289062	-0.0	-0.0	-0.0	-0.0	-0.0	-0.0	172778.3125	-28021.373046875	-3953.32470703125
0.6435	-0.0	-0.0	-0.0	-0.0	-0.0	-0.0	-7.53908109664917	0.1766433715820312	-630.9327392578125	-0.0	-0.0	-0.0	-0.0	-0.0	-0.0	172676.71875	-28174.037109375	-3950.634521484375
0.644	-0.0	-0.0	-0.0	-0.0	-0.0	-0.0	-7.184301853179932	0.7936292290687561	-631.256103515625	-0.0	-0.0	-0.0	-0.0	-0.0	-0.0	172248.65625	-27752.388671875	-3652.309326171875
0.6445	-0.0	-0.0	-0.0	-0.0	-0.0	-0.0	-6.213356971740723	1.2412855625152588	-629.5250854492188	-0.0	-0.0	-0.0	-0.0	-0.0	-0.0	172157.515625	-27579.64453125	-3502.051025390625
0.645	-0.0	-0.0	-0.0	-0.0	-0.0	-0.0	-6.027839660644531	1.5003501176834106	-629.1845092773438	-0.0	-0.0	-0.0	-0.0	-0.0	-0.0	172142.0	-27221.380859375	-3266.574951171875
0.6455	-0.0	-0.0	-0.0	-0.0	-0.0	-0.0	-6.564598083496094	1.2333368062973022	-626.7271728515625	-0.0	-0.0	-0.0	-0.0	-0.0	-0.0	171955.34375	-26730.34375	-3504.35791015625
0.646	-0.0	-0.0	-0.0	-0.0	-0.0	-0.0	-7.456655502319336	1.2345324754714966	-627.4059448242188	-0.0	-0.0	-0.0	-0.0	-0.0	-0.0	171761.40625	-26488.638671875	-3860.652587890625
0.6465	-0.0	-0.0	-0.0	-0.0	-0.0	-0.0	-7.993096828460693	2.0341246128082275	-625.6868896484375	-0.0	-0.0	-0.0	-0.0	-0.0	-0.0	171648.375	-25990.99609375	-4009.813232421875
0.647	-0.0	-0.0	-0.0	-0.0	-0.0	-0.0	-8.691108703613281	2.2071964740753174	-627.0762939453125	-0.0	-0.0	-0.0	-0.0	-0.0	-0.0	171837.125	-25627.89453125	-4276.390625
0.6475	-0.0	-0.0	-0.0	-0.0	-0.0	-0.0	-8.871850967407227	1.9469205141067505	-626.7271728515625	-0.0	-0.0	-0.0	-0.0	-0.0	-0.0	172444.234375	-25459.259765625	-4187.6708984375
0.648	-0.0	-0.0	-0.0	-0.0	-0.0	-0.0	-9.135807991027832	2.203853130340576	-630.213134765625	-0.0	-0.0	-0.0	-0.0	-0.0	-0.0	173223.171875	-25185.5625	-4336.6533203125
0.6485	-0.0	-0.0	-0.0	-0.0	-0.0	-0.0	-9.938159942626951	2.29763412475586	-633.3660888671875	-0.0	-0.0	-0.0	-0.0	-0.0	-0.0	174148.921875	-25168.77734375	-4517.33935546875
0.649	-0.0	-0.0	-0.0	-0.0	-0.0	-0.0	-11.26458740234375	2.381335973739624	-637.203857421875	-0.0	-0.0	-0.0	-0.0	-0.0	-0.0	175202.171875	-25068.625	-4813.73095703125
0.6495	-0.0	-0.0	-0.0	-0.0	-0.0	-0.0	-11.53090763092041	1.6810877323150637	-641.73876953125	-0.0	-0.0	-0.0	-0.0	-0.0	-0.0	176496.46875	-25370.69140625	-5079.15869140625
0.65	-0.0	-0.0	-0.0	-0.0	-0.0	-0.0	-11.264986991882324	2.2955126762390137	-644.518798828125	-0.0	-0.0	-0.0	-0.0	-0.0	-0.0	177126.03125	-25241.130859375	-4872.4736328125
0.6505	-0.0	-0.0	-0.0	-0.0	-0.0	-0.0	-10.822015762329102	2.2963638305664062	-645.5785522460938	-0.0	-0.0	-0.0	-0.0	-0.0	-0.0	177919.359375	-25448.265625	-4812.6884765625
0.651	-0.0	-0.0	-0.0	-0.0	-0.0	-0.0	-9.846610069274902	2.473865270614624	-645.9305419921875	-0.0	-0.0	-0.0	-0.0	-0.0	-0.0	178701.578125	-25568.80078125	-4663.91650390625
0.6515	-0.0	-0.0	-0.0	-0.0	-0.0	-0.0	-8.959999084472656	3.443291187286377	-649.4194946289062	-0.0	-0.0	-0.0	-0.0	-0.0	-0.0	179046.546875	-25868.3828125	-4484.6279296875
0.652	-0.0	-0.0	-0.0	-0.0	-0.0	-0.0	-8.249823570251465	3.179997682571411	-648.0264892578125	-0.0	-0.0	-0.0	-0.0	-0.0	-0.0	179389.875	-26178.2265625	-4158.025390625
0.6525	-0.0	-0.0	-0.0	-0.0	-0.0	-0.0	-7.540644645690918	3.0911076068878174	-650.4679565429688	-0.0	-0.0	-0.0	-0.0	-0.0	-0.0	179990.609375	-26196.509765625	-4098.2158203125
0.653	-0.0	-0.0	-0.0	-0.0	-0.0	-0.0	-7.54042387008667	3.4445505142211914	-649.7711181640625	-0.0	-0.0	-0.0	-0.0	-0.0	-0.0	180036.359375	-26196.724609375	-4098.12451171875
0.6535	-0.0	-0.0	-0.0	-0.0	-0.0	-0.0	-6.919441223144531	3.886347532272339	-646.6298217773438	-0.0	-0.0	-0.0	-0.0	-0.0	-0.0	179877.609375	-26279.53125	-3771.33203125
0.654	-0.0	-0.0	-0.0	-0.0	-0.0	-0.0	-5.589589595794678	4.4162187576293945	-646.2791137695312	-0.0	-0.0	-0.0	-0.0	-0.0	-0.0	179254.171875	-26206.173828125	-3651.4404296875
0.6545	-0.0	-0.0	-0.0	-0.0	-0.0	-0.0	-5.499007225036621	5.034547328948975	-644.533935546875	-0.0	-0.0	-0.0	-0.0	-0.0	-0.0	179415.9375	-26202.3515625	-3236.2255859375
0.655	-0.0	-0.0	-0.0	-0.0	-0.0	-0.0	-4.52342414855957	5.30012321472168	-642.43896484375	-0.0	-0.0	-0.0	-0.0	-0.0	-0.0	179136.15625	-26380.61328125	-3146.443359375
0.6555	-0.0	-0.0	-0.0	-0.0	-0.0	-0.0	-4.257765293121338	6.093143463134766	-643.8341674804688	-0.0	-0.0	-0.0	-0.0	-0.0	-0.0	179422.78125	-26249.17578125	-3175.0615234375
0.656	-0.0	-0.0	-0.0	-0.0	-0.0	-0.0	-3.460566282272339	6.184622764587402	-643.4830932617188	-0.0	-0.0	-0.0	-0.0	-0.0	-0.0	179219.875	-26320.923828125	-2907.683349609375
0.6565	-0.0	-0.0	-0.0	-0.0	-0.0	-0.0	-2.2177696228027344	6.183485984802246	-643.8317260742188	-0.0	-0.0	-0.0	-0.0	-0.0	-0.0	179482.75	-26194.45703125	-2610.767333984375
0.657	-0.0	-0.0	-0.0	-0.0	-0.0	-0.0	-1.7747790813446045	5.829792022705078	-643.8311157226562	-0.0	-0.0	-0.0	-0.0	-0.0	-0.0	179503.296875	-26054.30859375	-2342.67578125
